# xmcd
#
# Track frame offsets:
#	150
#	13316
#	23639
#	35902
#	49975
#	60563
#	74648
#	85908
#	97330
#	111752
#
# Disc length: 1669 seconds
#
# Revision: 1
# Processed by: cddbd v1.5.2PL0 Copyright (c) Steve Scherf et al.
# Submitted via: audiograbber 1.83.01
#
DISCID=9106830a
DTITLE=Various Artist - Good Lookin #1 Hits
DYEAR=1900
DGENRE=
TTITLE0=hank williams - hey good lookin
TTITLE1=conway twitty - (i can't Beleive) she gives it all to me
TTITLE2=eddy arnold - i'll hold you in my heart (till i can hold you in my arms
TTITLE2=)
TTITLE3=merle haggard - always wanting you
TTITLE4=carl smith - (when you feel like you're in love) don't just stand there
TTITLE5=mickey gilley - stand by me (live)
TTITLE6=ray price - crazy arms
TTITLE7=donna fargo - the happiest girl in the whole u.s.a.
TTITLE8=ernest tubb and conway twitty - it's been so long darling
TTITLE9=lee greenwood - hearts aren't made to break (they're made to love)
EXTD=
EXTT0=
EXTT1=
EXTT2=
EXTT3=
EXTT4=
EXTT5=
EXTT6=
EXTT7=
EXTT8=
EXTT9=
PLAYORDER=
